<svg width="90" height="18" viewBox="0 0 90 18" fill="none" xmlns="http://www.w3.org/2000/svg">
<path d="M20 0V9V18" stroke="#405165" stroke-opacity="0.62" stroke-width="0.5"/>
<path d="M29.8867 14.6816H27.9766L26.9688 13.1699C26.9141 13.1777 26.8613 13.1816 26.8105 13.1816C26.7637 13.1816 26.7168 13.1816 26.6699 13.1816C26.2715 13.1816 25.8867 13.1289 25.5156 13.0234C25.1484 12.9219 24.8027 12.7773 24.4785 12.5898C24.1582 12.3984 23.8652 12.1699 23.5996 11.9043C23.334 11.6387 23.1055 11.3457 22.9141 11.0254C22.7266 10.7012 22.5801 10.3555 22.4746 9.98828C22.373 9.61719 22.3223 9.23242 22.3223 8.83398C22.3223 8.43555 22.373 8.05078 22.4746 7.67969C22.5801 7.30859 22.7266 6.96289 22.9141 6.64258C23.1055 6.32227 23.334 6.0293 23.5996 5.76367C23.8652 5.49805 24.1582 5.27148 24.4785 5.08398C24.8027 4.89648 25.1484 4.75195 25.5156 4.65039C25.8867 4.54492 26.2715 4.49219 26.6699 4.49219C27.0684 4.49219 27.4531 4.54492 27.8242 4.65039C28.1953 4.75195 28.541 4.89648 28.8613 5.08398C29.1816 5.27148 29.4746 5.49805 29.7402 5.76367C30.0059 6.0293 30.2324 6.32227 30.4199 6.64258C30.6074 6.96289 30.752 7.30859 30.8535 7.67969C30.959 8.05078 31.0117 8.43555 31.0117 8.83398C31.0117 9.24805 30.9531 9.65039 30.8359 10.041C30.7227 10.4316 30.5605 10.7969 30.3496 11.1367C30.1387 11.4727 29.8828 11.7773 29.582 12.0508C29.2852 12.3242 28.9531 12.5527 28.5859 12.7363L29.8867 14.6816ZM29.3418 8.83398C29.3418 8.4668 29.2715 8.12109 29.1309 7.79688C28.9902 7.46875 28.7988 7.18555 28.5566 6.94727C28.3184 6.70508 28.0352 6.51367 27.707 6.37305C27.3828 6.23242 27.0371 6.16211 26.6699 6.16211C26.2988 6.16211 25.9512 6.23242 25.627 6.37305C25.3027 6.51367 25.0195 6.70508 24.7773 6.94727C24.5352 7.18555 24.3438 7.46875 24.2031 7.79688C24.0625 8.12109 23.9922 8.4668 23.9922 8.83398C23.9922 9.20117 24.0625 9.54688 24.2031 9.87109C24.3438 10.1914 24.5352 10.4727 24.7773 10.7148C25.0195 10.957 25.3027 11.1484 25.627 11.2891C25.9512 11.4297 26.2988 11.5 26.6699 11.5C27.0371 11.5 27.3828 11.4297 27.707 11.2891C28.0352 11.1484 28.3184 10.957 28.5566 10.7148C28.7988 10.4727 28.9902 10.1914 29.1309 9.87109C29.2715 9.54688 29.3418 9.20117 29.3418 8.83398ZM36.5605 12.2676C36.4316 12.3848 36.293 12.4961 36.1445 12.6016C36 12.7031 35.8477 12.793 35.6875 12.8711C35.5273 12.9453 35.3613 13.0039 35.1895 13.0469C35.0215 13.0938 34.8496 13.1172 34.6738 13.1172C34.2871 13.1172 33.9238 13.0488 33.584 12.9121C33.2441 12.7754 32.9453 12.582 32.6875 12.332C32.4336 12.0781 32.2324 11.7715 32.084 11.4121C31.9395 11.0488 31.8672 10.6426 31.8672 10.1934V6.72461H33.4609V10.1934C33.4609 10.4043 33.4922 10.5938 33.5547 10.7617C33.6211 10.9258 33.709 11.0645 33.8184 11.1777C33.9277 11.291 34.0547 11.377 34.1992 11.4355C34.3477 11.4941 34.5059 11.5234 34.6738 11.5234C34.8379 11.5234 34.9922 11.4863 35.1367 11.4121C35.2852 11.334 35.4141 11.2324 35.5234 11.1074C35.6328 10.9824 35.7188 10.8418 35.7812 10.6855C35.8438 10.5254 35.875 10.3613 35.875 10.1934V6.72461H37.4746V13H37.0879L36.5605 12.2676ZM44.7754 13H44.3887L43.7676 12.1387C43.6152 12.2754 43.4531 12.4043 43.2812 12.5254C43.1133 12.6426 42.9355 12.7461 42.748 12.8359C42.5605 12.9219 42.3672 12.9902 42.168 13.041C41.9727 13.0918 41.7734 13.1172 41.5703 13.1172C41.1289 13.1172 40.7129 13.043 40.3223 12.8945C39.9355 12.7461 39.5957 12.5312 39.3027 12.25C39.0137 11.9648 38.7852 11.6172 38.6172 11.207C38.4492 10.7969 38.3652 10.3301 38.3652 9.80664C38.3652 9.31836 38.4492 8.87109 38.6172 8.46484C38.7852 8.05469 39.0137 7.70312 39.3027 7.41016C39.5957 7.11719 39.9355 6.89062 40.3223 6.73047C40.7129 6.56641 41.1289 6.48438 41.5703 6.48438C41.7734 6.48438 41.9746 6.50977 42.1738 6.56055C42.373 6.61133 42.5664 6.68164 42.7539 6.77148C42.9414 6.86133 43.1191 6.9668 43.2871 7.08789C43.459 7.20898 43.6191 7.33984 43.7676 7.48047L44.3887 6.73633H44.7754V13ZM43.1641 9.80664C43.1641 9.58789 43.1211 9.37695 43.0352 9.17383C42.9531 8.9668 42.8398 8.78516 42.6953 8.62891C42.5508 8.46875 42.3809 8.3418 42.1855 8.24805C41.9941 8.15039 41.7891 8.10156 41.5703 8.10156C41.3516 8.10156 41.1445 8.13867 40.9492 8.21289C40.7578 8.28711 40.5898 8.39648 40.4453 8.54102C40.3047 8.68555 40.1934 8.86523 40.1113 9.08008C40.0293 9.29102 39.9883 9.5332 39.9883 9.80664C39.9883 10.0801 40.0293 10.3242 40.1113 10.5391C40.1934 10.75 40.3047 10.9277 40.4453 11.0723C40.5898 11.2168 40.7578 11.3262 40.9492 11.4004C41.1445 11.4746 41.3516 11.5117 41.5703 11.5117C41.7891 11.5117 41.9941 11.4648 42.1855 11.3711C42.3809 11.2734 42.5508 11.1465 42.6953 10.9902C42.8398 10.8301 42.9531 10.6484 43.0352 10.4453C43.1211 10.2383 43.1641 10.0254 43.1641 9.80664ZM49.1465 13C48.7598 13 48.3965 12.9277 48.0566 12.7832C47.7168 12.6348 47.418 12.4336 47.1602 12.1797C46.9062 11.9219 46.7051 11.623 46.5566 11.2832C46.4121 10.9434 46.3398 10.5801 46.3398 10.1934V8.33008H45.5605V6.73633H46.3398V4.22852H47.9336V6.73633H50.3594V8.33008H47.9336V10.1934C47.9336 10.3613 47.9648 10.5195 48.0273 10.668C48.0898 10.8125 48.1758 10.9395 48.2852 11.0488C48.3945 11.1582 48.5234 11.2461 48.6719 11.3125C48.8203 11.375 48.9785 11.4062 49.1465 11.4062H50.3594V13H49.1465ZM52.8613 13H51.2617V6.72461H51.6484L52.1758 7.46875C52.4336 7.23438 52.7266 7.05469 53.0547 6.92969C53.3828 6.80078 53.7227 6.73633 54.0742 6.73633H55.4863V8.33008H54.0742C53.9062 8.33008 53.748 8.36133 53.5996 8.42383C53.4512 8.48633 53.3223 8.57227 53.2129 8.68164C53.1035 8.79102 53.0176 8.91992 52.9551 9.06836C52.8926 9.2168 52.8613 9.375 52.8613 9.54297V13ZM58.6094 11.4648C58.6719 11.4844 58.7344 11.498 58.7969 11.5059C58.8594 11.5098 58.9219 11.5117 58.9844 11.5117C59.1406 11.5117 59.291 11.4902 59.4355 11.4473C59.5801 11.4043 59.7148 11.3438 59.8398 11.2656C59.9688 11.1836 60.082 11.0859 60.1797 10.9727C60.2812 10.8555 60.3633 10.7266 60.4258 10.5859L61.5977 11.7637C61.4492 11.9746 61.2773 12.1641 61.082 12.332C60.8906 12.5 60.6816 12.6426 60.4551 12.7598C60.2324 12.877 59.9961 12.9648 59.7461 13.0234C59.5 13.0859 59.2461 13.1172 58.9844 13.1172C58.543 13.1172 58.127 13.0352 57.7363 12.8711C57.3496 12.707 57.0098 12.4785 56.7168 12.1855C56.4277 11.8926 56.1992 11.5449 56.0312 11.1426C55.8633 10.7363 55.7793 10.291 55.7793 9.80664C55.7793 9.31055 55.8633 8.85742 56.0312 8.44727C56.1992 8.03711 56.4277 7.6875 56.7168 7.39844C57.0098 7.10938 57.3496 6.88477 57.7363 6.72461C58.127 6.56445 58.543 6.48438 58.9844 6.48438C59.2461 6.48438 59.502 6.51562 59.752 6.57812C60.002 6.64062 60.2383 6.73047 60.4609 6.84766C60.6875 6.96484 60.8984 7.10938 61.0938 7.28125C61.2891 7.44922 61.4609 7.63867 61.6094 7.84961L58.6094 11.4648ZM59.4297 8.16602C59.3555 8.13867 59.2812 8.12109 59.207 8.11328C59.1367 8.10547 59.0625 8.10156 58.9844 8.10156C58.7656 8.10156 58.5586 8.14258 58.3633 8.22461C58.1719 8.30273 58.0039 8.41602 57.8594 8.56445C57.7188 8.71289 57.6074 8.89258 57.5254 9.10352C57.4434 9.31055 57.4023 9.54492 57.4023 9.80664C57.4023 9.86523 57.4043 9.93164 57.4082 10.0059C57.416 10.0801 57.4258 10.1562 57.4375 10.2344C57.4531 10.3086 57.4707 10.3809 57.4902 10.4512C57.5098 10.5215 57.5352 10.584 57.5664 10.6387L59.4297 8.16602Z" fill="#4A86E8"/>
<path d="M68.4707 13H62.5879V4.59766H64.2695V11.3184H68.4707V13ZM75.0918 13H74.7051L74.084 12.1387C73.9316 12.2754 73.7695 12.4043 73.5977 12.5254C73.4297 12.6426 73.252 12.7461 73.0645 12.8359C72.877 12.9219 72.6836 12.9902 72.4844 13.041C72.2891 13.0918 72.0898 13.1172 71.8867 13.1172C71.4453 13.1172 71.0293 13.043 70.6387 12.8945C70.252 12.7461 69.9121 12.5312 69.6191 12.25C69.3301 11.9648 69.1016 11.6172 68.9336 11.207C68.7656 10.7969 68.6816 10.3301 68.6816 9.80664C68.6816 9.31836 68.7656 8.87109 68.9336 8.46484C69.1016 8.05469 69.3301 7.70312 69.6191 7.41016C69.9121 7.11719 70.252 6.89062 70.6387 6.73047C71.0293 6.56641 71.4453 6.48438 71.8867 6.48438C72.0898 6.48438 72.291 6.50977 72.4902 6.56055C72.6895 6.61133 72.8828 6.68164 73.0703 6.77148C73.2578 6.86133 73.4355 6.9668 73.6035 7.08789C73.7754 7.20898 73.9355 7.33984 74.084 7.48047L74.7051 6.73633H75.0918V13ZM73.4805 9.80664C73.4805 9.58789 73.4375 9.37695 73.3516 9.17383C73.2695 8.9668 73.1562 8.78516 73.0117 8.62891C72.8672 8.46875 72.6973 8.3418 72.502 8.24805C72.3105 8.15039 72.1055 8.10156 71.8867 8.10156C71.668 8.10156 71.4609 8.13867 71.2656 8.21289C71.0742 8.28711 70.9062 8.39648 70.7617 8.54102C70.6211 8.68555 70.5098 8.86523 70.4277 9.08008C70.3457 9.29102 70.3047 9.5332 70.3047 9.80664C70.3047 10.0801 70.3457 10.3242 70.4277 10.5391C70.5098 10.75 70.6211 10.9277 70.7617 11.0723C70.9062 11.2168 71.0742 11.3262 71.2656 11.4004C71.4609 11.4746 71.668 11.5117 71.8867 11.5117C72.1055 11.5117 72.3105 11.4648 72.502 11.3711C72.6973 11.2734 72.8672 11.1465 73.0117 10.9902C73.1562 10.8301 73.2695 10.6484 73.3516 10.4453C73.4375 10.2383 73.4805 10.0254 73.4805 9.80664ZM82.5977 9.80664C82.5977 10.2988 82.5137 10.748 82.3457 11.1543C82.1777 11.5605 81.9492 11.9102 81.6602 12.2031C81.3711 12.4922 81.0312 12.7168 80.6406 12.877C80.2539 13.0371 79.8379 13.1172 79.3926 13.1172C78.9512 13.1172 78.5352 13.0352 78.1445 12.8711C77.7578 12.707 77.418 12.4785 77.125 12.1855C76.8359 11.8926 76.6074 11.5449 76.4395 11.1426C76.2715 10.7363 76.1875 10.291 76.1875 9.80664V4.22852H77.793V7.1582C77.8789 7.04883 77.9824 6.95117 78.1035 6.86523C78.2285 6.7793 78.3613 6.70898 78.502 6.6543C78.6465 6.59961 78.7949 6.55859 78.9473 6.53125C79.0996 6.5 79.248 6.48438 79.3926 6.48438C79.8379 6.48438 80.2539 6.56836 80.6406 6.73633C81.0312 6.90039 81.3711 7.13086 81.6602 7.42773C81.9492 7.72461 82.1777 8.07617 82.3457 8.48242C82.5137 8.88477 82.5977 9.32617 82.5977 9.80664ZM80.9863 9.80664C80.9863 9.56445 80.9434 9.33984 80.8574 9.13281C80.7754 8.92188 80.6621 8.74023 80.5176 8.58789C80.373 8.43555 80.2031 8.31641 80.0078 8.23047C79.8164 8.14453 79.6113 8.10156 79.3926 8.10156C79.1738 8.10156 78.9668 8.15039 78.7715 8.24805C78.5801 8.3418 78.4121 8.46875 78.2676 8.62891C78.123 8.78516 78.0098 8.9668 77.9277 9.17383C77.8457 9.37695 77.8047 9.58789 77.8047 9.80664C77.8047 10.0488 77.8457 10.2734 77.9277 10.4805C78.0098 10.6875 78.123 10.8672 78.2676 11.0195C78.4121 11.1719 78.5801 11.293 78.7715 11.3828C78.9668 11.4688 79.1738 11.5117 79.3926 11.5117C79.6113 11.5117 79.8164 11.4688 80.0078 11.3828C80.2031 11.293 80.373 11.1719 80.5176 11.0195C80.6621 10.8672 80.7754 10.6875 80.8574 10.4805C80.9434 10.2734 80.9863 10.0488 80.9863 9.80664ZM86.9336 13H83.2773V11.4062H86.9336C87.043 11.4062 87.1367 11.3672 87.2148 11.2891C87.293 11.2109 87.332 11.1172 87.332 11.0078C87.332 10.8945 87.293 10.8203 87.2148 10.7852C87.1367 10.75 87.043 10.7324 86.9336 10.7324H85.2695C84.9922 10.7324 84.7324 10.6797 84.4902 10.5742C84.248 10.4688 84.0371 10.3262 83.8574 10.1465C83.6777 9.96289 83.5352 9.75 83.4297 9.50781C83.3281 9.26562 83.2773 9.00586 83.2773 8.72852C83.2773 8.45117 83.3281 8.19141 83.4297 7.94922C83.5352 7.70703 83.6777 7.49609 83.8574 7.31641C84.0371 7.13672 84.248 6.99609 84.4902 6.89453C84.7324 6.78906 84.9922 6.73633 85.2695 6.73633H88.5098V8.33008H85.2695C85.1602 8.33008 85.0664 8.36914 84.9883 8.44727C84.9102 8.52539 84.8711 8.61914 84.8711 8.72852C84.8711 8.8418 84.9102 8.93945 84.9883 9.02148C85.0664 9.09961 85.1602 9.13867 85.2695 9.13867H86.9336C87.207 9.13867 87.4648 9.18555 87.707 9.2793C87.9492 9.36914 88.1602 9.49609 88.3398 9.66016C88.5195 9.82422 88.6621 10.0215 88.7676 10.252C88.873 10.4824 88.9258 10.7344 88.9258 11.0078C88.9258 11.2852 88.873 11.5449 88.7676 11.7871C88.6621 12.0254 88.5195 12.2363 88.3398 12.4199C88.1602 12.5996 87.9492 12.7422 87.707 12.8477C87.4648 12.9492 87.207 13 86.9336 13Z" fill="#405165"/>
<path d="M16.5831 13.8473C17.8069 11.9328 18.2612 9.62635 17.855 7.39082C17.4487 5.15529 16.2119 3.15615 14.3929 1.79466C12.5738 0.433175 10.3071 -0.189892 8.04772 0.0505221C5.78833 0.290936 3.70348 1.37704 2.21165 3.09083C0.71982 4.80462 -0.0685865 7.01925 0.00468023 9.29021C0.077947 11.5612 1.00746 13.7204 2.60666 15.3344C4.20586 16.9485 6.35637 17.898 8.62656 17.9922C10.8967 18.0865 13.1186 17.3186 14.8461 15.8427L9 9L16.5831 13.8473Z" fill="#4A86E8"/>
<circle cx="9" cy="9" r="6.42857" fill="white"/>
<ellipse cx="9" cy="9" rx="3.85714" ry="3.85714" fill="#4A86E8"/>
</svg>
