<svg width="372" height="80" viewBox="0 0 372 80" fill="none" xmlns="http://www.w3.org/2000/svg">
<circle cx="40" cy="40" r="40" fill="#307EFF"/>
<g filter="url(#filter0_d)">
<path fill-rule="evenodd" clip-rule="evenodd" d="M58.0589 64.3105C57.3936 63.4218 56.1354 63.2515 55.2056 63.858C50.827 66.714 45.6059 68.3723 40 68.3723C24.536 68.3723 12 55.753 12 40.1862C12 24.6194 24.536 12 40 12C55.464 12 68 24.6194 68 40.1862C68 45.4879 66.5459 50.4478 64.0172 54.6837C63.4532 55.6285 63.6648 56.8666 64.5642 57.5006L71.9538 62.7092C72.4032 63.026 72.5136 63.647 72.1886 64.0905C70.0933 66.9496 67.6312 69.517 64.8667 71.7258C64.4332 72.072 63.8019 71.9825 63.4695 71.5383L58.0589 64.3105ZM49.08 52.3159C49.7383 53.1953 49.5692 54.4525 48.6241 55.0124C46.0779 56.5205 43.1107 57.3855 39.9429 57.3855C30.4751 57.3855 22.8 49.6593 22.8 40.1286C22.8 30.598 30.4751 22.8718 39.9429 22.8718C49.4106 22.8718 57.0857 30.598 57.0857 40.1286C57.0857 43.0966 56.3414 45.8896 55.0304 48.3287C54.5058 49.3048 53.2422 49.5201 52.3364 48.8817L45.1595 43.8229C44.2288 43.1669 43.1004 44.3279 43.7828 45.2396L49.08 52.3159Z" fill="white"/>
</g>
<path d="M134.547 63.7266H126.906L122.875 57.6797C122.656 57.7109 122.445 57.7266 122.242 57.7266C122.055 57.7266 121.867 57.7266 121.68 57.7266C120.086 57.7266 118.547 57.5156 117.062 57.0938C115.594 56.6875 114.211 56.1094 112.914 55.3594C111.633 54.5938 110.461 53.6797 109.398 52.6172C108.336 51.5547 107.422 50.3828 106.656 49.1016C105.906 47.8047 105.32 46.4219 104.898 44.9531C104.492 43.4688 104.289 41.9297 104.289 40.3359C104.289 38.7422 104.492 37.2031 104.898 35.7188C105.32 34.2344 105.906 32.8516 106.656 31.5703C107.422 30.2891 108.336 29.1172 109.398 28.0547C110.461 26.9922 111.633 26.0859 112.914 25.3359C114.211 24.5859 115.594 24.0078 117.062 23.6016C118.547 23.1797 120.086 22.9688 121.68 22.9688C123.273 22.9688 124.812 23.1797 126.297 23.6016C127.781 24.0078 129.164 24.5859 130.445 25.3359C131.727 26.0859 132.898 26.9922 133.961 28.0547C135.023 29.1172 135.93 30.2891 136.68 31.5703C137.43 32.8516 138.008 34.2344 138.414 35.7188C138.836 37.2031 139.047 38.7422 139.047 40.3359C139.047 41.9922 138.812 43.6016 138.344 45.1641C137.891 46.7266 137.242 48.1875 136.398 49.5469C135.555 50.8906 134.531 52.1094 133.328 53.2031C132.141 54.2969 130.812 55.2109 129.344 55.9453L134.547 63.7266ZM132.367 40.3359C132.367 38.8672 132.086 37.4844 131.523 36.1875C130.961 34.875 130.195 33.7422 129.227 32.7891C128.273 31.8203 127.141 31.0547 125.828 30.4922C124.531 29.9297 123.148 29.6484 121.68 29.6484C120.195 29.6484 118.805 29.9297 117.508 30.4922C116.211 31.0547 115.078 31.8203 114.109 32.7891C113.141 33.7422 112.375 34.875 111.812 36.1875C111.25 37.4844 110.969 38.8672 110.969 40.3359C110.969 41.8047 111.25 43.1875 111.812 44.4844C112.375 45.7656 113.141 46.8906 114.109 47.8594C115.078 48.8281 116.211 49.5938 117.508 50.1562C118.805 50.7188 120.195 51 121.68 51C123.148 51 124.531 50.7188 125.828 50.1562C127.141 49.5938 128.273 48.8281 129.227 47.8594C130.195 46.8906 130.961 45.7656 131.523 44.4844C132.086 43.1875 132.367 41.8047 132.367 40.3359ZM161.242 54.0703C160.727 54.5391 160.172 54.9844 159.578 55.4062C159 55.8125 158.391 56.1719 157.75 56.4844C157.109 56.7812 156.445 57.0156 155.758 57.1875C155.086 57.375 154.398 57.4688 153.695 57.4688C152.148 57.4688 150.695 57.1953 149.336 56.6484C147.977 56.1016 146.781 55.3281 145.75 54.3281C144.734 53.3125 143.93 52.0859 143.336 50.6484C142.758 49.1953 142.469 47.5703 142.469 45.7734V31.8984H148.844V45.7734C148.844 46.6172 148.969 47.375 149.219 48.0469C149.484 48.7031 149.836 49.2578 150.273 49.7109C150.711 50.1641 151.219 50.5078 151.797 50.7422C152.391 50.9766 153.023 51.0938 153.695 51.0938C154.352 51.0938 154.969 50.9453 155.547 50.6484C156.141 50.3359 156.656 49.9297 157.094 49.4297C157.531 48.9297 157.875 48.3672 158.125 47.7422C158.375 47.1016 158.5 46.4453 158.5 45.7734V31.8984H164.898V57H163.352L161.242 54.0703ZM194.102 57H192.555L190.07 53.5547C189.461 54.1016 188.812 54.6172 188.125 55.1016C187.453 55.5703 186.742 55.9844 185.992 56.3438C185.242 56.6875 184.469 56.9609 183.672 57.1641C182.891 57.3672 182.094 57.4688 181.281 57.4688C179.516 57.4688 177.852 57.1719 176.289 56.5781C174.742 55.9844 173.383 55.125 172.211 54C171.055 52.8594 170.141 51.4688 169.469 49.8281C168.797 48.1875 168.461 46.3203 168.461 44.2266C168.461 42.2734 168.797 40.4844 169.469 38.8594C170.141 37.2188 171.055 35.8125 172.211 34.6406C173.383 33.4688 174.742 32.5625 176.289 31.9219C177.852 31.2656 179.516 30.9375 181.281 30.9375C182.094 30.9375 182.898 31.0391 183.695 31.2422C184.492 31.4453 185.266 31.7266 186.016 32.0859C186.766 32.4453 187.477 32.8672 188.148 33.3516C188.836 33.8359 189.477 34.3594 190.07 34.9219L192.555 31.9453H194.102V57ZM187.656 44.2266C187.656 43.3516 187.484 42.5078 187.141 41.6953C186.812 40.8672 186.359 40.1406 185.781 39.5156C185.203 38.875 184.523 38.3672 183.742 37.9922C182.977 37.6016 182.156 37.4062 181.281 37.4062C180.406 37.4062 179.578 37.5547 178.797 37.8516C178.031 38.1484 177.359 38.5859 176.781 39.1641C176.219 39.7422 175.773 40.4609 175.445 41.3203C175.117 42.1641 174.953 43.1328 174.953 44.2266C174.953 45.3203 175.117 46.2969 175.445 47.1562C175.773 48 176.219 48.7109 176.781 49.2891C177.359 49.8672 178.031 50.3047 178.797 50.6016C179.578 50.8984 180.406 51.0469 181.281 51.0469C182.156 51.0469 182.977 50.8594 183.742 50.4844C184.523 50.0938 185.203 49.5859 185.781 48.9609C186.359 48.3203 186.812 47.5938 187.141 46.7812C187.484 45.9531 187.656 45.1016 187.656 44.2266ZM211.586 57C210.039 57 208.586 56.7109 207.227 56.1328C205.867 55.5391 204.672 54.7344 203.641 53.7188C202.625 52.6875 201.82 51.4922 201.227 50.1328C200.648 48.7734 200.359 47.3203 200.359 45.7734V38.3203H197.242V31.9453H200.359V21.9141H206.734V31.9453H216.438V38.3203H206.734V45.7734C206.734 46.4453 206.859 47.0781 207.109 47.6719C207.359 48.25 207.703 48.7578 208.141 49.1953C208.578 49.6328 209.094 49.9844 209.688 50.25C210.281 50.5 210.914 50.625 211.586 50.625H216.438V57H211.586ZM226.445 57H220.047V31.8984H221.594L223.703 34.875C224.734 33.9375 225.906 33.2188 227.219 32.7188C228.531 32.2031 229.891 31.9453 231.297 31.9453H236.945V38.3203H231.297C230.625 38.3203 229.992 38.4453 229.398 38.6953C228.805 38.9453 228.289 39.2891 227.852 39.7266C227.414 40.1641 227.07 40.6797 226.82 41.2734C226.57 41.8672 226.445 42.5 226.445 43.1719V57ZM249.438 50.8594C249.688 50.9375 249.938 50.9922 250.188 51.0234C250.438 51.0391 250.688 51.0469 250.938 51.0469C251.562 51.0469 252.164 50.9609 252.742 50.7891C253.32 50.6172 253.859 50.375 254.359 50.0625C254.875 49.7344 255.328 49.3438 255.719 48.8906C256.125 48.4219 256.453 47.9062 256.703 47.3438L261.391 52.0547C260.797 52.8984 260.109 53.6562 259.328 54.3281C258.562 55 257.727 55.5703 256.82 56.0391C255.93 56.5078 254.984 56.8594 253.984 57.0938C253 57.3438 251.984 57.4688 250.938 57.4688C249.172 57.4688 247.508 57.1406 245.945 56.4844C244.398 55.8281 243.039 54.9141 241.867 53.7422C240.711 52.5703 239.797 51.1797 239.125 49.5703C238.453 47.9453 238.117 46.1641 238.117 44.2266C238.117 42.2422 238.453 40.4297 239.125 38.7891C239.797 37.1484 240.711 35.75 241.867 34.5938C243.039 33.4375 244.398 32.5391 245.945 31.8984C247.508 31.2578 249.172 30.9375 250.938 30.9375C251.984 30.9375 253.008 31.0625 254.008 31.3125C255.008 31.5625 255.953 31.9219 256.844 32.3906C257.75 32.8594 258.594 33.4375 259.375 34.125C260.156 34.7969 260.844 35.5547 261.438 36.3984L249.438 50.8594ZM252.719 37.6641C252.422 37.5547 252.125 37.4844 251.828 37.4531C251.547 37.4219 251.25 37.4062 250.938 37.4062C250.062 37.4062 249.234 37.5703 248.453 37.8984C247.688 38.2109 247.016 38.6641 246.438 39.2578C245.875 39.8516 245.43 40.5703 245.102 41.4141C244.773 42.2422 244.609 43.1797 244.609 44.2266C244.609 44.4609 244.617 44.7266 244.633 45.0234C244.664 45.3203 244.703 45.625 244.75 45.9375C244.812 46.2344 244.883 46.5234 244.961 46.8047C245.039 47.0859 245.141 47.3359 245.266 47.5547L252.719 37.6641Z" fill="#307EFF"/>
<path d="M288.883 57H265.352V23.3906H272.078V50.2734H288.883V57ZM315.367 57H313.82L311.336 53.5547C310.727 54.1016 310.078 54.6172 309.391 55.1016C308.719 55.5703 308.008 55.9844 307.258 56.3438C306.508 56.6875 305.734 56.9609 304.938 57.1641C304.156 57.3672 303.359 57.4688 302.547 57.4688C300.781 57.4688 299.117 57.1719 297.555 56.5781C296.008 55.9844 294.648 55.125 293.477 54C292.32 52.8594 291.406 51.4688 290.734 49.8281C290.062 48.1875 289.727 46.3203 289.727 44.2266C289.727 42.2734 290.062 40.4844 290.734 38.8594C291.406 37.2188 292.32 35.8125 293.477 34.6406C294.648 33.4688 296.008 32.5625 297.555 31.9219C299.117 31.2656 300.781 30.9375 302.547 30.9375C303.359 30.9375 304.164 31.0391 304.961 31.2422C305.758 31.4453 306.531 31.7266 307.281 32.0859C308.031 32.4453 308.742 32.8672 309.414 33.3516C310.102 33.8359 310.742 34.3594 311.336 34.9219L313.82 31.9453H315.367V57ZM308.922 44.2266C308.922 43.3516 308.75 42.5078 308.406 41.6953C308.078 40.8672 307.625 40.1406 307.047 39.5156C306.469 38.875 305.789 38.3672 305.008 37.9922C304.242 37.6016 303.422 37.4062 302.547 37.4062C301.672 37.4062 300.844 37.5547 300.062 37.8516C299.297 38.1484 298.625 38.5859 298.047 39.1641C297.484 39.7422 297.039 40.4609 296.711 41.3203C296.383 42.1641 296.219 43.1328 296.219 44.2266C296.219 45.3203 296.383 46.2969 296.711 47.1562C297.039 48 297.484 48.7109 298.047 49.2891C298.625 49.8672 299.297 50.3047 300.062 50.6016C300.844 50.8984 301.672 51.0469 302.547 51.0469C303.422 51.0469 304.242 50.8594 305.008 50.4844C305.789 50.0938 306.469 49.5859 307.047 48.9609C307.625 48.3203 308.078 47.5938 308.406 46.7812C308.75 45.9531 308.922 45.1016 308.922 44.2266ZM345.391 44.2266C345.391 46.1953 345.055 47.9922 344.383 49.6172C343.711 51.2422 342.797 52.6406 341.641 53.8125C340.484 54.9688 339.125 55.8672 337.562 56.5078C336.016 57.1484 334.352 57.4688 332.57 57.4688C330.805 57.4688 329.141 57.1406 327.578 56.4844C326.031 55.8281 324.672 54.9141 323.5 53.7422C322.344 52.5703 321.43 51.1797 320.758 49.5703C320.086 47.9453 319.75 46.1641 319.75 44.2266V21.9141H326.172V33.6328C326.516 33.1953 326.93 32.8047 327.414 32.4609C327.914 32.1172 328.445 31.8359 329.008 31.6172C329.586 31.3984 330.18 31.2344 330.789 31.125C331.398 31 331.992 30.9375 332.57 30.9375C334.352 30.9375 336.016 31.2734 337.562 31.9453C339.125 32.6016 340.484 33.5234 341.641 34.7109C342.797 35.8984 343.711 37.3047 344.383 38.9297C345.055 40.5391 345.391 42.3047 345.391 44.2266ZM338.945 44.2266C338.945 43.2578 338.773 42.3594 338.43 41.5312C338.102 40.6875 337.648 39.9609 337.07 39.3516C336.492 38.7422 335.812 38.2656 335.031 37.9219C334.266 37.5781 333.445 37.4062 332.57 37.4062C331.695 37.4062 330.867 37.6016 330.086 37.9922C329.32 38.3672 328.648 38.875 328.07 39.5156C327.492 40.1406 327.039 40.8672 326.711 41.6953C326.383 42.5078 326.219 43.3516 326.219 44.2266C326.219 45.1953 326.383 46.0938 326.711 46.9219C327.039 47.75 327.492 48.4688 328.07 49.0781C328.648 49.6875 329.32 50.1719 330.086 50.5312C330.867 50.875 331.695 51.0469 332.57 51.0469C333.445 51.0469 334.266 50.875 335.031 50.5312C335.812 50.1719 336.492 49.6875 337.07 49.0781C337.648 48.4688 338.102 47.75 338.43 46.9219C338.773 46.0938 338.945 45.1953 338.945 44.2266ZM362.734 57H348.109V50.625H362.734C363.172 50.625 363.547 50.4688 363.859 50.1562C364.172 49.8438 364.328 49.4688 364.328 49.0312C364.328 48.5781 364.172 48.2812 363.859 48.1406C363.547 48 363.172 47.9297 362.734 47.9297H356.078C354.969 47.9297 353.93 47.7188 352.961 47.2969C351.992 46.875 351.148 46.3047 350.43 45.5859C349.711 44.8516 349.141 44 348.719 43.0312C348.312 42.0625 348.109 41.0234 348.109 39.9141C348.109 38.8047 348.312 37.7656 348.719 36.7969C349.141 35.8281 349.711 34.9844 350.43 34.2656C351.148 33.5469 351.992 32.9844 352.961 32.5781C353.93 32.1562 354.969 31.9453 356.078 31.9453H369.039V38.3203H356.078C355.641 38.3203 355.266 38.4766 354.953 38.7891C354.641 39.1016 354.484 39.4766 354.484 39.9141C354.484 40.3672 354.641 40.7578 354.953 41.0859C355.266 41.3984 355.641 41.5547 356.078 41.5547H362.734C363.828 41.5547 364.859 41.7422 365.828 42.1172C366.797 42.4766 367.641 42.9844 368.359 43.6406C369.078 44.2969 369.648 45.0859 370.07 46.0078C370.492 46.9297 370.703 47.9375 370.703 49.0312C370.703 50.1406 370.492 51.1797 370.07 52.1484C369.648 53.1016 369.078 53.9453 368.359 54.6797C367.641 55.3984 366.797 55.9688 365.828 56.3906C364.859 56.7969 363.828 57 362.734 57Z" fill="#2F3B48"/>
<defs>
<filter id="filter0_d" x="7" y="9" width="70.3759" height="69.9375" filterUnits="userSpaceOnUse" color-interpolation-filters="sRGB">
<feFlood flood-opacity="0" result="BackgroundImageFix"/>
<feColorMatrix in="SourceAlpha" type="matrix" values="0 0 0 0 0 0 0 0 0 0 0 0 0 0 0 0 0 0 127 0"/>
<feOffset dy="2"/>
<feGaussianBlur stdDeviation="2.5"/>
<feColorMatrix type="matrix" values="0 0 0 0 0 0 0 0 0 0 0 0 0 0 0 0 0 0 0.25 0"/>
<feBlend mode="normal" in2="BackgroundImageFix" result="effect1_dropShadow"/>
<feBlend mode="normal" in="SourceGraphic" in2="effect1_dropShadow" result="shape"/>
</filter>
</defs>
</svg>
